<svg xmlns="http://www.w3.org/2000/svg" width="115.976" height="115.978" viewBox="0 0 115.976 115.978">
  <path d="M30.061,115.978h-.019a36.3,36.3,0,0,1-15.713-3.722,23.258,23.258,0,0,1-6.106-4.5,23.246,23.246,0,0,1-4.5-6.105A36.29,36.29,0,0,1,0,85.953v-.036H2.5a31.085,31.085,0,0,1,13.259,3.695,27.393,27.393,0,0,1,6.106,4.5,27.444,27.444,0,0,1,4.5,6.106,31.106,31.106,0,0,1,3.7,13.26ZM0,73.639H41.05a1.289,1.289,0,0,1,1.289,1.289v41.05H58.007V89.331c0-19.529-11.581-31.361-31.36-31.361H0ZM0,44.654H70.034a1.289,1.289,0,0,1,1.289,1.289v70.035H86.992V58.806A29.821,29.821,0,0,0,57.17,28.985H0Zm100.308-27.7v99.02h15.668v-87.7C115.976,10.2,106.358,0,87.7,0H0V15.669H99.019A1.289,1.289,0,0,1,100.308,16.958Z"/>
</svg>
